<?xml version="1.0" standalone="no"?>
<!DOCTYPE svg PUBLIC "-//W3C//DTD SVG 20010904//EN"
 "http://www.w3.org/TR/2001/REC-SVG-20010904/DTD/svg10.dtd">
<svg version="1.0" xmlns="http://www.w3.org/2000/svg"
 width="2375.000000pt" height="2375.000000pt" viewBox="0 0 2375.000000 2375.000000"
 preserveAspectRatio="xMidYMid meet">
<metadata>
Created by potrace 1.11, written by Peter Selinger 2001-2013
</metadata>
<g transform="translate(0.000000,2375.000000) scale(0.100000,-0.100000)"
fill="#000000" stroke="none">
<path d="M11148 23743 c-1055 -2 -1918 -6 -1918 -11 0 -7 -698 -7092 -865
-8772 -70 -716 -90 -948 -82 -957 28 -27 639 -373 1022 -578 280 -150 962
-491 1259 -630 1451 -677 2863 -1213 4134 -1571 129 -36 236 -63 239 -60 3 3
93 875 199 1937 106 1062 195 1934 198 1936 2 3 804 9 1782 14 978 5 1779 11
1781 12 4 5 525 5219 521 5222 -2 2 -799 8 -1771 13 -971 4 -1769 10 -1771 13
-3 3 296 3161 319 3371 7 55 8 57 38 61 33 4 -1818 4 -5085 0z"/>
<path d="M3055 18503 c-615 -21 -1120 -141 -1450 -346 -294 -181 -484 -458
-535 -779 -20 -125 -8 -399 23 -523 97 -380 305 -762 652 -1195 431 -538 1097
-1163 1970 -1850 1108 -872 2431 -1716 3970 -2533 146 -77 160 -87 163 -113 1
-16 -245 -2531 -547 -5589 -302 -3058 -547 -5562 -544 -5565 3 -3 2354 -7
5226 -9 l5222 -3 239 2558 c131 1408 241 2583 243 2612 l6 52 -1742 0 -1742 0
6 48 c4 26 75 739 160 1585 84 846 156 1541 158 1544 3 2 151 -38 329 -91
1299 -384 2507 -641 3698 -785 1531 -186 2603 -82 3191 310 185 124 356 319
439 502 67 148 83 225 87 427 4 161 2 199 -17 289 -146 714 -859 1596 -2104
2604 -451 365 -1171 897 -1551 1146 l-50 33 35 -34 c20 -18 101 -92 180 -164
475 -431 832 -863 1026 -1241 214 -418 242 -805 82 -1128 -169 -341 -546 -563
-1128 -664 -560 -98 -1422 -84 -2179 34 -1613 252 -3376 788 -5281 1605 -622
267 -1018 451 -1620 751 -1470 735 -2697 1504 -3780 2370 -231 184 -366 306
-628 564 -702 690 -1095 1281 -1178 1769 -22 133 -15 339 16 445 48 167 128
301 254 426 242 240 602 377 1151 437 157 17 789 17 985 0 150 -13 379 -38
440 -47 83 -13 -6 15 -170 54 -1549 360 -2789 525 -3705 494z"/>
</g>
</svg>
